<svg width="100%" height="100%" viewBox="0 0 128 163" version="1.1" xmlns="http://www.w3.org/2000/svg" xmlns:xlink="http://www.w3.org/1999/xlink" xml:space="preserve" xmlns:serif="http://www.serif.com/" class="kcp-svg" style="fill-rule:evenodd;clip-rule:evenodd;stroke-linecap:round;stroke-linejoin:round;stroke-miterlimit:22.926;"><rect id="kcp" x="0" y="0" width="128" height="162.5" style="fill:none;"/><clipPath id="_clip1"><rect x="0" y="0" width="128" height="162.5"/></clipPath><g clip-path="url(#_clip1)"><g id="kcp1" serif:id="kcp"><path d="M84.521,7.892c0,0 -2.843,-0.804 -2.193,-4.451c0.647,-3.654 -0.239,-4.368 3.608,-2.284c2.869,1.55 2.585,2.008 2.869,4.193" style="fill:none;fill-rule:nonzero;stroke:#8c312e;stroke-width:0.75px;"/><path d="M17.601,122.153c0,0 2.844,1.13 5.182,2.777c2.333,1.649 4.318,4.136 4.972,6.615c0.668,2.482 0.638,4.913 -0.266,6.101c-0.452,0.586 -0.985,1.014 -1.436,1.368l-0.765,0.437c0,0 0.085,-0.567 -0.178,-1.805" style="fill:none;fill-rule:nonzero;stroke:#8c312e;stroke-width:0.75px;"/><path d="M14.233,100.046c0,-3.106 -2.558,-5.627 -5.709,-5.627c-3.152,0 -5.71,2.521 -5.71,5.627c0,3.106 2.558,5.628 5.71,5.628c3.151,0 5.709,-2.522 5.709,-5.628Z" style="fill:none;stroke:#8c312e;stroke-width:0.75px;"/><path d="M12.746,101.089c0,-0.604 -0.499,-1.095 -1.114,-1.095c-0.615,0 -1.114,0.491 -1.114,1.095c0,0.605 0.499,1.096 1.114,1.096c0.615,0 1.114,-0.491 1.114,-1.096Z" style="fill:none;stroke:#8c312e;stroke-width:0.75px;"/><path d="M10.713,103.013c0,-0.608 -0.497,-1.101 -1.11,-1.101c-0.612,0 -1.109,0.493 -1.109,1.101c0,0.607 0.497,1.1 1.109,1.1c0.613,0 1.11,-0.493 1.11,-1.1Z" style="fill:none;stroke:#8c312e;stroke-width:0.75px;"/><path d="M7.206,98.239c0,-0.605 -0.498,-1.095 -1.112,-1.095c-0.614,0 -1.113,0.49 -1.113,1.095c0,0.604 0.499,1.094 1.113,1.094c0.614,0 1.112,-0.49 1.112,-1.094Z" style="fill:none;stroke:#8c312e;stroke-width:0.75px;"/><path d="M6.494,100.545c0,-0.605 -0.497,-1.096 -1.11,-1.096c-0.612,0 -1.109,0.491 -1.109,1.096c0,0.604 0.497,1.095 1.109,1.095c0.613,0 1.11,-0.491 1.11,-1.095Z" style="fill:none;stroke:#8c312e;stroke-width:0.75px;"/><path d="M8.109,102.775c0,-0.604 -0.499,-1.095 -1.114,-1.095c-0.614,0 -1.113,0.491 -1.113,1.095c0,0.604 0.499,1.095 1.113,1.095c0.615,0 1.114,-0.491 1.114,-1.095Z" style="fill:none;stroke:#8c312e;stroke-width:0.75px;"/><path d="M7.59,97.188c0,0.606 0.498,1.098 1.111,1.098c0.613,0 1.111,-0.492 1.111,-1.098c0,-0.607 -0.498,-1.099 -1.111,-1.099c-0.613,0 -1.111,0.492 -1.111,1.099Z" style="fill:none;stroke:#8c312e;stroke-width:0.75px;"/><path d="M12.35,98.504c0,-0.605 -0.499,-1.096 -1.114,-1.096c-0.615,0 -1.114,0.491 -1.114,1.096c0,0.605 0.499,1.096 1.114,1.096c0.615,0 1.114,-0.491 1.114,-1.096Z" style="fill:none;stroke:#8c312e;stroke-width:0.75px;"/><path d="M39.277,118.464c0,-3.103 -2.556,-5.622 -5.704,-5.622c-3.149,0 -5.705,2.519 -5.705,5.622c0,3.103 2.556,5.622 5.705,5.622c3.148,0 5.704,-2.519 5.704,-5.622Z" style="fill:none;stroke:#8c312e;stroke-width:0.75px;"/><path d="M37.799,119.513c0,-0.604 -0.499,-1.095 -1.114,-1.095c-0.615,0 -1.114,0.491 -1.114,1.095c0,0.605 0.499,1.095 1.114,1.095c0.615,0 1.114,-0.49 1.114,-1.095Z" style="fill:none;stroke:#8c312e;stroke-width:0.75px;"/><path d="M35.758,121.432c0,-0.604 -0.498,-1.095 -1.111,-1.095c-0.614,0 -1.112,0.491 -1.112,1.095c0,0.604 0.498,1.095 1.112,1.095c0.613,0 1.111,-0.491 1.111,-1.095Z" style="fill:none;stroke:#8c312e;stroke-width:0.75px;"/><path d="M32.265,116.662c0,-0.604 -0.5,-1.094 -1.116,-1.094c-0.616,0 -1.116,0.49 -1.116,1.094c0,0.603 0.5,1.094 1.116,1.094c0.616,0 1.116,-0.491 1.116,-1.094Z" style="fill:none;stroke:#8c312e;stroke-width:0.75px;"/><path d="M31.552,118.968c0,-0.605 -0.499,-1.096 -1.113,-1.096c-0.614,0 -1.113,0.491 -1.113,1.096c0,0.604 0.499,1.095 1.113,1.095c0.614,0 1.113,-0.491 1.113,-1.095Z" style="fill:none;stroke:#8c312e;stroke-width:0.75px;"/><path d="M33.161,121.198c0,-0.605 -0.501,-1.096 -1.117,-1.096c-0.616,0 -1.116,0.491 -1.116,1.096c0,0.604 0.5,1.095 1.116,1.095c0.616,0 1.117,-0.491 1.117,-1.095Z" style="fill:none;stroke:#8c312e;stroke-width:0.75px;"/><path d="M34.866,115.604c0,-0.604 -0.499,-1.094 -1.113,-1.094c-0.615,0 -1.113,0.49 -1.113,1.094c0,0.604 0.498,1.094 1.113,1.094c0.614,0 1.113,-0.49 1.113,-1.094Z" style="fill:none;stroke:#8c312e;stroke-width:0.75px;"/><path d="M37.41,116.929c0,-0.604 -0.501,-1.094 -1.118,-1.094c-0.616,0 -1.117,0.49 -1.117,1.094c0,0.604 0.501,1.095 1.117,1.095c0.617,0 1.118,-0.491 1.118,-1.095Z" style="fill:none;stroke:#8c312e;stroke-width:0.75px;"/><path d="M88.786,101.107c0,-3.104 -2.558,-5.625 -5.709,-5.625c-3.15,0 -5.709,2.521 -5.709,5.625c0,3.105 2.559,5.626 5.709,5.626c3.151,0 5.709,-2.521 5.709,-5.626Z" style="fill:none;stroke:#8c312e;stroke-width:0.75px;"/><path d="M87.303,102.156c0,-0.604 -0.499,-1.095 -1.113,-1.095c-0.615,0 -1.113,0.491 -1.113,1.095c0,0.604 0.498,1.095 1.113,1.095c0.614,0 1.113,-0.491 1.113,-1.095Z" style="fill:none;stroke:#8c312e;stroke-width:0.75px;"/><path d="M83.048,104.07c0,0.604 0.497,1.094 1.111,1.094c0.613,0 1.111,-0.49 1.111,-1.094c0,-0.604 -0.498,-1.095 -1.111,-1.095c-0.614,0 -1.111,0.491 -1.111,1.095Z" style="fill:none;stroke:#8c312e;stroke-width:0.75px;"/><path d="M81.767,99.303c0,-0.605 -0.499,-1.096 -1.115,-1.096c-0.615,0 -1.115,0.491 -1.115,1.096c0,0.605 0.5,1.096 1.115,1.096c0.616,0 1.115,-0.491 1.115,-1.096Z" style="fill:none;stroke:#8c312e;stroke-width:0.75px;"/><path d="M81.048,101.607c0,-0.604 -0.498,-1.095 -1.112,-1.095c-0.614,0 -1.112,0.491 -1.112,1.095c0,0.605 0.498,1.095 1.112,1.095c0.614,0 1.112,-0.49 1.112,-1.095Z" style="fill:none;stroke:#8c312e;stroke-width:0.75px;"/><path d="M82.654,103.844c0,-0.604 -0.497,-1.095 -1.109,-1.095c-0.612,0 -1.109,0.491 -1.109,1.095c0,0.604 0.497,1.095 1.109,1.095c0.612,0 1.109,-0.491 1.109,-1.095Z" style="fill:none;stroke:#8c312e;stroke-width:0.75px;"/><path d="M84.37,98.245c0,-0.604 -0.5,-1.095 -1.116,-1.095c-0.616,0 -1.117,0.491 -1.117,1.095c0,0.604 0.501,1.095 1.117,1.095c0.616,0 1.116,-0.491 1.116,-1.095Z" style="fill:none;stroke:#8c312e;stroke-width:0.75px;"/><path d="M86.908,99.569c0,-0.605 -0.498,-1.096 -1.113,-1.096c-0.614,0 -1.113,0.491 -1.113,1.096c0,0.605 0.499,1.096 1.113,1.096c0.615,0 1.113,-0.491 1.113,-1.096Z" style="fill:none;stroke:#8c312e;stroke-width:0.75px;"/><path d="M5.672,94.876c-0.536,-1.496 -1.162,-3.289 -1.311,-5.001c-0.224,-2.661 -0.224,-2.891 -0.224,-2.891c0,0 -2.176,-0.095 -2.176,-2.476c0,-2.377 1.849,-2.665 1.849,-2.665c0,0 -4.432,0.172 -3.283,-4.572c0.609,-2.47 4.116,-2.381 4.116,-2.381c0,0 -1.932,-12.98 9.229,-18.702c2.491,-1.276 4.194,-2.03 9.197,-3.05c5.384,-1.105 14.278,-0.274 20.49,0.086c5.453,0.329 8.43,-0.543 10.903,-1.789" style="fill:none;fill-rule:nonzero;stroke:#8c312e;stroke-width:0.75px;"/><path d="M59.188,45.021c0,-3.561 -2.936,-6.453 -6.551,-6.453c-3.616,0 -6.551,2.892 -6.551,6.453c0,3.562 2.935,6.453 6.551,6.453c3.615,0 6.551,-2.891 6.551,-6.453Z" style="fill:none;stroke:#8c312e;stroke-width:0.75px;"/><path d="M45.464,52.972c-2.353,-2.114 -4.062,-4.844 -4.062,-8.278c0,-6.383 5.136,-11.552 11.474,-11.552c6.342,0 11.474,5.169 11.474,11.552c0,6.385 -4.873,12.73 -12.66,13.528c0,0 -3.884,0.284 -4.915,0.242c-0.964,-0.039 -1.868,0 -5.169,-0.244c-3.312,-0.258 -7.511,-0.721 -16.184,0.523c-11.982,1.727 -13.84,9.454 -13.84,9.454" style="fill:none;fill-rule:nonzero;stroke:#8c312e;stroke-width:0.75px;"/><path d="M99.055,37.515c0,-1.954 -1.614,-3.541 -3.602,-3.541c-1.988,0 -3.602,1.587 -3.602,3.541c0,1.954 1.614,3.541 3.602,3.541c1.988,0 3.602,-1.587 3.602,-3.541Z" style="fill:none;stroke:#8c312e;stroke-width:0.75px;"/><path d="M94.015,37.475c0,0.759 0.624,1.376 1.393,1.376c0.769,0 1.393,-0.617 1.393,-1.376c0,-0.759 -0.624,-1.376 -1.393,-1.376c-0.769,0 -1.393,0.617 -1.393,1.376Z" style="fill:none;stroke:#8c312e;stroke-width:0.75px;"/><path d="M91.993,42.887c0,0 0.267,-1.203 -0.993,-0.824c-1.065,0.31 -0.041,1.767 0.993,2.215c1.031,0.45 2.467,0.415 3.821,0.25c1.341,-0.162 3.862,-0.991 4.762,-1.531c0.895,-0.528 1.795,0.971 3.143,1.531c1.483,0.619 2.245,0.327 2.471,0.124c0.224,-0.204 0.584,-0.985 0.317,-1.976c-0.27,-0.992 0.181,-1.481 0.895,-1.685" style="fill:none;fill-rule:nonzero;stroke:#8c312e;stroke-width:0.75px;"/><path d="M33.194,124.177c0,0 6.207,1.29 10.7,1.422c4.499,0.129 9.838,-0.494 9.838,-0.494" style="fill:none;fill-rule:nonzero;stroke:#8c312e;stroke-width:0.75px;"/><path d="M53.51,91.37c0,0 0.854,7.031 -1.932,11.903c-2.79,4.876 -6.512,7.934 -8.628,8.986c-2.109,1.074 -2.29,0.807 -2.29,0.807c0,0 3.815,-1.197 7.102,-0.448c3.28,0.756 7.321,2.706 7.775,3.141" style="fill:none;fill-rule:nonzero;stroke:#8c312e;stroke-width:0.75px;"/><path d="M62.101,117.207c-1.439,-1.623 -4.707,-2.073 -6.207,-1.05c-1.748,1.18 -2.79,4.775 -2.605,6.971c0.222,2.68 1.453,3.591 2.293,4.161c1.931,1.311 3.543,0.396 3.543,0.396" style="fill:none;fill-rule:nonzero;stroke:#8c312e;stroke-width:0.75px;"/><path d="M58.733,131.484c0,0 0.807,-2.479 0.137,-5.093c-0.684,-2.614 3.767,-4.026 4.394,-1.195c0.63,2.828 -0.851,5.006 -2.015,5.629c-1.171,0.616 -2.516,0.659 -2.516,0.659Z" style="fill:none;fill-rule:nonzero;stroke:#8c312e;stroke-width:0.75px;"/><path d="M35.82,72.469c0,0 12.017,0.745 12.251,11.956c0.248,11.225 -11.112,15.503 -12.673,15.977c-1.554,0.471 -8.418,2.331 -17.763,0.32" style="fill:none;fill-rule:nonzero;stroke:#8c312e;stroke-width:0.75px;"/><path d="M21.551,105.606c8.326,0.912 14.22,-0.819 15.757,-1.325c1.855,-0.609 15.324,-6.09 15.044,-20.46c-0.262,-13.416 -11.666,-15.106 -13.192,-15.269c-0.116,-0.013 -1.692,-0.127 -1.692,-0.127c0,0 -1.104,-0.089 -2.31,-0.026" style="fill:none;fill-rule:nonzero;stroke:#8c312e;stroke-width:0.75px;"/><path d="M18.454,120.475c-0.526,1.193 -0.738,1.568 -0.738,1.568" style="fill:none;fill-rule:nonzero;stroke:#8c312e;stroke-width:0.75px;"/><path d="M17.391,100.545c0,0 3.836,2.598 4.196,7.026c0.359,4.433 -0.483,6.076 -1.435,8.745c-0.113,0.308 -0.242,0.632 -0.361,0.954" style="fill:none;fill-rule:nonzero;stroke:#8c312e;stroke-width:0.75px;"/><path d="M29.491,90.074c0,-0.865 -0.717,-1.567 -1.599,-1.567c-0.883,0 -1.6,0.702 -1.6,1.567c0,0.865 0.717,1.567 1.6,1.567c0.882,0 1.599,-0.702 1.599,-1.567Z" style="fill:none;stroke:#8c312e;stroke-width:0.75px;"/><path d="M32.478,91.967c0,-0.867 -0.714,-1.571 -1.593,-1.571c-0.879,0 -1.593,0.704 -1.593,1.571c0,0.867 0.714,1.57 1.593,1.57c0.879,0 1.593,-0.703 1.593,-1.57Z" style="fill:none;stroke:#8c312e;stroke-width:0.75px;"/><path d="M36.195,92.02c0,-0.867 -0.714,-1.572 -1.592,-1.572c-0.879,0 -1.592,0.705 -1.592,1.572c0,0.868 0.713,1.573 1.592,1.573c0.878,0 1.592,-0.705 1.592,-1.573Z" style="fill:none;stroke:#8c312e;stroke-width:0.75px;"/><path d="M39.497,90.671c0,-0.868 -0.717,-1.572 -1.601,-1.572c-0.883,0 -1.6,0.704 -1.6,1.572c0,0.867 0.717,1.571 1.6,1.571c0.884,0 1.601,-0.704 1.601,-1.571Z" style="fill:none;stroke:#8c312e;stroke-width:0.75px;"/><path d="M41.229,87.714c0,-0.865 -0.716,-1.567 -1.597,-1.567c-0.881,0 -1.596,0.702 -1.596,1.567c0,0.865 0.715,1.567 1.596,1.567c0.881,0 1.597,-0.702 1.597,-1.567Z" style="fill:none;stroke:#8c312e;stroke-width:0.75px;"/><path d="M34.668,85.429c0,-0.865 -0.714,-1.568 -1.593,-1.568c-0.879,0 -1.593,0.703 -1.593,1.568c0,0.866 0.714,1.569 1.593,1.569c0.879,0 1.593,-0.703 1.593,-1.569Z" style="fill:none;stroke:#8c312e;stroke-width:0.75px;"/><path d="M41.59,84.109c0,-0.868 -0.715,-1.572 -1.596,-1.572c-0.881,0 -1.596,0.704 -1.596,1.572c0,0.868 0.715,1.573 1.596,1.573c0.881,0 1.596,-0.705 1.596,-1.573Z" style="fill:none;stroke:#8c312e;stroke-width:0.75px;"/><path d="M40.03,80.864c0,-0.869 -0.714,-1.575 -1.592,-1.575c-0.879,0 -1.592,0.706 -1.592,1.575c0,0.869 0.713,1.575 1.592,1.575c0.878,0 1.592,-0.706 1.592,-1.575Z" style="fill:none;stroke:#8c312e;stroke-width:0.75px;"/><path d="M37.153,78.973c0,-0.866 -0.715,-1.57 -1.596,-1.57c-0.881,0 -1.596,0.704 -1.596,1.57c0,0.867 0.715,1.571 1.596,1.571c0.881,0 1.596,-0.704 1.596,-1.571Z" style="fill:none;stroke:#8c312e;stroke-width:0.75px;"/><path d="M33.437,78.623c0,-0.866 -0.715,-1.569 -1.596,-1.569c-0.88,0 -1.595,0.703 -1.595,1.569c0,0.866 0.715,1.569 1.595,1.569c0.881,0 1.596,-0.703 1.596,-1.569Z" style="fill:none;stroke:#8c312e;stroke-width:0.75px;"/><path d="M27.076,80.158c0,0.866 0.714,1.568 1.592,1.568c0.879,0 1.592,-0.702 1.592,-1.568c0,-0.866 -0.713,-1.568 -1.592,-1.568c-0.878,0 -1.592,0.702 -1.592,1.568Z" style="fill:none;stroke:#8c312e;stroke-width:0.75px;"/><path d="M24.976,83.052c0,0.867 0.715,1.57 1.596,1.57c0.881,0 1.597,-0.703 1.597,-1.57c0,-0.867 -0.716,-1.571 -1.597,-1.571c-0.881,0 -1.596,0.704 -1.596,1.571Z" style="fill:none;stroke:#8c312e;stroke-width:0.75px;"/><path d="M27.98,86.77c0,-0.867 -0.714,-1.571 -1.593,-1.571c-0.879,0 -1.593,0.704 -1.593,1.571c0,0.867 0.714,1.571 1.593,1.571c0.879,0 1.593,-0.704 1.593,-1.571Z" style="fill:none;stroke:#8c312e;stroke-width:0.75px;"/><path d="M28.071,85.42c0,2.758 2.272,4.997 5.071,4.997c2.799,0 5.071,-2.239 5.071,-4.997c0,-2.758 -2.272,-4.997 -5.071,-4.997c-2.799,0 -5.071,2.239 -5.071,4.997Z" style="fill:none;stroke:#8c312e;stroke-width:0.75px;"/><path d="M83.307,79.729c0,0.814 0.67,1.476 1.496,1.476c0.826,0 1.496,-0.662 1.496,-1.476c0,-0.815 -0.67,-1.476 -1.496,-1.476c-0.826,0 -1.496,0.661 -1.496,1.476Z" style="fill:none;stroke:#8c312e;stroke-width:0.75px;"/><path d="M89.111,81.508c0,-0.815 -0.67,-1.476 -1.495,-1.476c-0.825,0 -1.495,0.661 -1.495,1.476c0,0.814 0.67,1.476 1.495,1.476c0.825,0 1.495,-0.662 1.495,-1.476Z" style="fill:none;stroke:#8c312e;stroke-width:0.75px;"/><path d="M92.603,81.56c0,-0.813 -0.672,-1.473 -1.5,-1.473c-0.827,0 -1.499,0.66 -1.499,1.473c0,0.814 0.672,1.474 1.499,1.474c0.828,0 1.5,-0.66 1.5,-1.474Z" style="fill:none;stroke:#8c312e;stroke-width:0.75px;"/><path d="M95.699,80.286c0,-0.817 -0.671,-1.48 -1.499,-1.48c-0.827,0 -1.499,0.663 -1.499,1.48c0,0.817 0.672,1.48 1.499,1.48c0.828,0 1.499,-0.663 1.499,-1.48Z" style="fill:none;stroke:#8c312e;stroke-width:0.75px;"/><path d="M94.335,77.513c0,0.815 0.669,1.477 1.495,1.477c0.825,0 1.495,-0.662 1.495,-1.477c0,-0.815 -0.67,-1.477 -1.495,-1.477c-0.826,0 -1.495,0.662 -1.495,1.477Z" style="fill:none;stroke:#8c312e;stroke-width:0.75px;"/><path d="M91.416,75.412c0,-0.816 -0.671,-1.478 -1.498,-1.478c-0.827,0 -1.498,0.662 -1.498,1.478c0,0.816 0.671,1.478 1.498,1.478c0.827,0 1.498,-0.662 1.498,-1.478Z" style="fill:none;stroke:#8c312e;stroke-width:0.75px;"/><path d="M97.665,74.134c0,-0.814 -0.671,-1.475 -1.498,-1.475c-0.827,0 -1.498,0.661 -1.498,1.475c0,0.814 0.671,1.475 1.498,1.475c0.827,0 1.498,-0.661 1.498,-1.475Z" style="fill:none;stroke:#8c312e;stroke-width:0.75px;"/><path d="M96.198,71.087c0,-0.815 -0.671,-1.477 -1.497,-1.477c-0.826,0 -1.496,0.662 -1.496,1.477c0,0.815 0.67,1.476 1.496,1.476c0.826,0 1.497,-0.661 1.497,-1.476Z" style="fill:none;stroke:#8c312e;stroke-width:0.75px;"/><path d="M93.501,69.319c0,-0.816 -0.671,-1.479 -1.496,-1.479c-0.826,0 -1.497,0.663 -1.497,1.479c0,0.816 0.671,1.479 1.497,1.479c0.825,0 1.496,-0.663 1.496,-1.479Z" style="fill:none;stroke:#8c312e;stroke-width:0.75px;"/><path d="M90.011,68.982c0,-0.812 -0.67,-1.472 -1.496,-1.472c-0.826,0 -1.497,0.66 -1.497,1.472c0,0.813 0.671,1.473 1.497,1.473c0.826,0 1.496,-0.66 1.496,-1.473Z" style="fill:none;stroke:#8c312e;stroke-width:0.75px;"/><path d="M87.032,70.424c0,-0.812 -0.671,-1.472 -1.498,-1.472c-0.826,0 -1.497,0.66 -1.497,1.472c0,0.812 0.671,1.471 1.497,1.471c0.827,0 1.498,-0.659 1.498,-1.471Z" style="fill:none;stroke:#8c312e;stroke-width:0.75px;"/><path d="M85.063,73.142c0,-0.815 -0.67,-1.477 -1.495,-1.477c-0.825,0 -1.495,0.662 -1.495,1.477c0,0.815 0.67,1.477 1.495,1.477c0.825,0 1.495,-0.662 1.495,-1.477Z" style="fill:none;stroke:#8c312e;stroke-width:0.75px;"/><path d="M84.895,76.636c0,-0.815 -0.67,-1.476 -1.496,-1.476c-0.826,0 -1.496,0.661 -1.496,1.476c0,0.815 0.67,1.477 1.496,1.477c0.826,0 1.496,-0.662 1.496,-1.477Z" style="fill:none;stroke:#8c312e;stroke-width:0.75px;"/><path d="M84.97,75.359c0,2.588 2.133,4.689 4.761,4.689c2.627,0 4.761,-2.101 4.761,-4.689c0,-2.588 -2.134,-4.688 -4.761,-4.688c-2.628,0 -4.761,2.1 -4.761,4.688Z" style="fill:none;stroke:#8c312e;stroke-width:0.75px;"/><path d="M73.119,34.192c0,-0.988 -0.814,-1.79 -1.816,-1.79c-1.002,0 -1.816,0.802 -1.816,1.79c0,0.988 0.814,1.79 1.816,1.79c1.002,0 1.816,-0.802 1.816,-1.79Z" style="fill:none;stroke:#8c312e;stroke-width:0.75px;"/><path d="M74.016,38.231c0,-0.988 -0.814,-1.79 -1.816,-1.79c-1.003,0 -1.817,0.802 -1.817,1.79c0,0.987 0.814,1.79 1.817,1.79c1.002,0 1.816,-0.803 1.816,-1.79Z" style="fill:none;stroke:#8c312e;stroke-width:0.75px;"/><path d="M90.803,23.381c0,-0.988 -0.815,-1.79 -1.817,-1.79c-1.003,0 -1.818,0.802 -1.818,1.79c0,0.988 0.815,1.79 1.818,1.79c1.002,0 1.817,-0.802 1.817,-1.79Z" style="fill:none;stroke:#8c312e;stroke-width:0.75px;"/><path d="M86.874,22.22c0,-0.991 -0.815,-1.796 -1.818,-1.796c-1.004,0 -1.818,0.805 -1.818,1.796c0,0.991 0.814,1.795 1.818,1.795c1.003,0 1.818,-0.804 1.818,-1.795Z" style="fill:none;stroke:#8c312e;stroke-width:0.75px;"/><path d="M82.757,22.137c0,-0.989 -0.814,-1.792 -1.817,-1.792c-1.003,0 -1.817,0.803 -1.817,1.792c0,0.99 0.814,1.793 1.817,1.793c1.003,0 1.817,-0.803 1.817,-1.793Z" style="fill:none;stroke:#8c312e;stroke-width:0.75px;"/><path d="M105.358,19.913c0,-0.832 -0.685,-1.507 -1.528,-1.507c-0.843,0 -1.527,0.675 -1.527,1.507c0,0.832 0.684,1.507 1.527,1.507c0.843,0 1.528,-0.675 1.528,-1.507Z" style="fill:none;stroke:#8c312e;stroke-width:0.75px;"/><path d="M78.77,23.504c0,-0.991 -0.814,-1.795 -1.818,-1.795c-1.004,0 -1.818,0.804 -1.818,1.795c0,0.992 0.814,1.796 1.818,1.796c1.004,0 1.818,-0.804 1.818,-1.796Z" style="fill:none;stroke:#8c312e;stroke-width:0.75px;"/><path d="M75.511,26.376c0,-0.989 -0.816,-1.792 -1.821,-1.792c-1.006,0 -1.822,0.803 -1.822,1.792c0,0.989 0.816,1.792 1.822,1.792c1.005,0 1.821,-0.803 1.821,-1.792Z" style="fill:none;stroke:#8c312e;stroke-width:0.75px;"/><path d="M73.572,30.189c0,-0.99 -0.816,-1.794 -1.821,-1.794c-1.005,0 -1.821,0.804 -1.821,1.794c0,0.989 0.816,1.793 1.821,1.793c1.005,0 1.821,-0.804 1.821,-1.793Z" style="fill:none;stroke:#8c312e;stroke-width:0.75px;"/><path d="M34.951,68.161c0,0 -1.86,-1.684 -2.878,0.622c-1.014,2.301 -0.108,4.435 0.813,5.346c1.135,1.117 2.427,1.117 3.324,0.585c1.374,-0.805 0.123,-1.238 -0.208,-1.625c-0.719,-0.823 -0.995,-1.117 -1.051,-2.237c-0.06,-1.124 0.208,-2.015 0.208,-2.015" style="fill:none;fill-rule:nonzero;stroke:#8c312e;stroke-width:0.75px;"/><path d="M35.122,58.06c0,0 2.68,-0.579 3.552,3.28c0.769,3.475 -0.015,6.304 -1.551,6.95" style="fill:none;fill-rule:nonzero;stroke:#8c312e;stroke-width:0.75px;"/><path d="M41.874,58.296c0,0 2.694,0.471 2.904,4.299c0.213,3.826 -0.683,5.234 -1.075,6.054c-0.396,0.814 -0.719,0.872 -0.719,0.872" style="fill:none;fill-rule:nonzero;stroke:#8c312e;stroke-width:0.75px;"/><path d="M42.454,62.726c0,-0.397 -0.327,-0.72 -0.731,-0.72c-0.403,0 -0.731,0.323 -0.731,0.72c0,0.398 0.328,0.72 0.731,0.72c0.404,0 0.731,-0.322 0.731,-0.72Z" style="fill:none;stroke:#8c312e;stroke-width:0.75px;"/><path d="M41.343,60.162c0,-0.398 -0.327,-0.721 -0.73,-0.721c-0.404,0 -0.731,0.323 -0.731,0.721c0,0.398 0.327,0.721 0.731,0.721c0.403,0 0.73,-0.323 0.73,-0.721Z" style="fill:none;stroke:#8c312e;stroke-width:0.75px;"/><path d="M42.184,65.357c0,-0.4 -0.328,-0.725 -0.732,-0.725c-0.404,0 -0.732,0.325 -0.732,0.725c0,0.399 0.328,0.724 0.732,0.724c0.404,0 0.732,-0.325 0.732,-0.724Z" style="fill:none;stroke:#8c312e;stroke-width:0.75px;"/><path d="M41.378,68.049c0,-0.401 -0.329,-0.726 -0.733,-0.726c-0.405,0 -0.733,0.325 -0.733,0.726c0,0.4 0.328,0.726 0.733,0.726c0.404,0 0.733,-0.326 0.733,-0.726Z" style="fill:none;stroke:#8c312e;stroke-width:0.75px;"/><path d="M38.361,38.406c-1.662,0.616 -3.1,1.016 -3.209,1.987c-0.117,0.977 0,1.337 0,1.337c0,0 -5.607,0.038 -7.159,3.407c-1.552,3.365 -0.108,4.946 0.239,5.445c0.427,0.614 2.039,1.684 4.586,1.857c2.558,0.184 5.104,-0.977 5.881,-2.563c0.773,-1.594 0.332,-2.837 -1.003,-3.634c-1.327,-0.796 -2.106,-0.709 -2.106,-0.709c0,0 3.441,1.15 4.768,-0.886c1.329,-2.031 -0.591,-3.765 0.888,-4.254c2.555,-0.837 -2.885,-1.987 -2.885,-1.987Z" style="fill:none;fill-rule:nonzero;stroke:#8c312e;stroke-width:0.75px;"/><path d="M53.287,19.379c0,0 0.766,0.943 0,1.524c-0.769,0.581 1.619,1.71 0.445,2.611c-1.162,0.894 1.266,2.07 -0.172,2.828c-1.446,0.768 1.076,2.737 -0.053,3.507c-1.12,0.761 0.906,2.288 0.419,3.052" style="fill:none;fill-rule:nonzero;stroke:#8c312e;stroke-width:0.75px;"/><path d="M49.735,18.987c0,0 -0.766,0.981 0,1.592c0.756,0.606 -1.63,1.774 -0.452,2.707c1.167,0.938 -1.253,2.159 0.179,2.947c1.436,0.801 -1.079,2.857 0.047,3.653c1.124,0.799 -0.9,2.386 -0.407,3.178" style="fill:none;fill-rule:nonzero;stroke:#8c312e;stroke-width:0.75px;"/><path d="M45.682,58.452c0,0 3.657,-0.472 10.006,3.717c6.353,4.197 10.426,7.441 12.223,9.447c1.798,2.007 3.296,3.189 3.296,3.189c0,0 0,0.415 -1.442,-6.848c-1.438,-7.26 -1.791,-11.346 -1.075,-16.237c0.9,-6.144 4.733,-11.158 6.893,-14.292c1.871,-2.702 2.631,-3.365 2.874,-3.716c0.248,-0.36 -1.009,-1.007 -0.178,-4.138c0.84,-3.13 3.658,-5.134 6.536,-4.785c2.407,0.301 3.681,1.266 4.314,1.877" style="fill:none;fill-rule:nonzero;stroke:#8c312e;stroke-width:0.75px;"/><path d="M56.045,57.153c0,0 3.894,3.953 4.914,6.963c1.019,3.011 0.778,2.247 0.778,2.247" style="fill:none;fill-rule:nonzero;stroke:#8c312e;stroke-width:0.75px;"/><path d="M60.444,54.25c0,0 3.298,3.002 4.859,7.191c1.354,3.677 1.3,5.434 1.354,6.831c0.055,1.412 -0.054,1.991 -0.054,1.991" style="fill:none;fill-rule:nonzero;stroke:#8c312e;stroke-width:0.75px;"/><path d="M64.434,45.036c0,0 6.677,-0.593 7.853,-2.758" style="fill:none;fill-rule:nonzero;stroke:#8c312e;stroke-width:0.75px;"/><path d="M62.63,51.421c0,0 5.31,1.332 6.012,-0.108" style="fill:none;fill-rule:nonzero;stroke:#8c312e;stroke-width:0.75px;"/><path d="M29.88,105.701c0,0 -1.94,6.213 -1.314,9.668" style="fill:none;fill-rule:nonzero;stroke:#8c312e;stroke-width:0.75px;"/><path d="M58.773,126.074c0,0 -3.152,-1.436 -1.893,-5.005c1.27,-3.576 3.24,-3.752 4.228,-3.662c0.99,0.086 4.045,0.981 6.194,2.056c2.166,1.065 7.134,4.65 8.548,5.974c1.619,1.524 2.312,3.272 2.312,3.272c0,0 -1.319,1.473 -4.199,2.366c-1.223,0.383 -3.038,-0.336 -4.92,0.239c-2.508,0.766 -3.352,2.219 -4.783,1.8c-2.523,-0.711 -2.697,-1.602 -3.242,-2.144" style="fill:none;fill-rule:nonzero;stroke:#8c312e;stroke-width:0.75px;"/><path d="M63.063,132.759c0.523,-1.003 1.203,-2.011 2.03,-2.693c1.571,-1.291 4.411,-2.185 6.114,-1.644c1.709,0.525 4.169,-1.072 5.332,-2.314" style="fill:none;fill-rule:nonzero;stroke:#8c312e;stroke-width:0.75px;"/><path d="M74.603,108.669c-0.714,-0.733 -1.407,-1.555 -1.984,-2.519c-2.247,-3.718 -2.695,-5.133 -3.332,-7.701" style="fill:none;fill-rule:nonzero;stroke:#8c312e;stroke-width:0.75px;"/><path d="M64.525,97.031c0,0 -0.361,5.58 4.676,11.692c0.87,1.061 1.644,1.969 2.318,2.747" style="fill:none;fill-rule:nonzero;stroke:#8c312e;stroke-width:0.75px;"/><path d="M76.254,113.436c0,0 -3.092,3.787 -0.045,7.777c3.061,3.98 6.839,6.554 10.791,7.353c3.957,0.798 8.983,-1.24 8.983,-1.24c0,0 -4.757,-1.067 -7,-4.7c-2.243,-3.629 -2.616,-8.147 -6.387,-10.006c-3.781,-1.86 -5.292,-0.644 -6.342,0.816Z" style="fill:none;fill-rule:nonzero;stroke:#8c312e;stroke-width:0.75px;"/><path d="M31.564,70.143c-0.402,-0.635 -1.13,-1.315 -2.463,-1.357c-2.478,-0.05 -4.671,0.597 -6.251,1.873c-1.576,1.267 -2.454,3.83 -2.454,3.83c0,0 1.945,-1.506 4.034,-1.248c2.084,0.26 3.894,1.513 5.819,0.639c0.827,-0.379 1.315,-0.777 1.569,-1.173" style="fill:none;fill-rule:nonzero;stroke:#8c312e;stroke-width:0.75px;"/><path d="M51.895,88.962c0,0 1.039,3.907 10.019,7.093c8.994,3.186 10.792,2.129 11.33,1.863" style="fill:none;fill-rule:nonzero;stroke:#8c312e;stroke-width:0.75px;"/><path d="M97.611,83.567c0,0 1.795,4.79 0.265,11.513c-1.527,6.737 -1.256,8.952 -0.442,12.668c0.803,3.722 1.662,4.957 2.282,5.756" style="fill:none;fill-rule:nonzero;stroke:#8c312e;stroke-width:0.75px;"/><path d="M85.829,106.417c0,0 2.336,2.561 3.15,5.844c0.812,3.275 2.962,6.909 4.318,8.418c1.344,1.509 2.601,2.662 3.324,1.597c0.719,-1.064 2.067,-2.925 3.769,-3.279c1.71,-0.357 2.52,-0.262 2.074,-2.034c-0.455,-1.776 -1.712,-3.363 -2.876,-3.274c-2.375,0.17 -4.183,0.966 -5.128,2.387c-1.578,2.366 -0.716,4.338 -0.716,5.046" style="fill:none;fill-rule:nonzero;stroke:#8c312e;stroke-width:0.75px;"/><path d="M82.412,106.82c0,0 1.932,2.306 2.657,5.094c0.724,2.785 3.094,7.215 4.622,9.032c1.532,1.811 4.099,3.184 5.309,3.637" style="fill:none;fill-rule:nonzero;stroke:#8c312e;stroke-width:0.75px;"/><path d="M85.114,38.226c-1.089,2.57 -1.257,3.544 -0.992,5.311c0.364,2.361 1.62,4.348 5.484,5.401c3.871,1.068 4.902,7.361 4.723,8.065" style="fill:none;fill-rule:nonzero;stroke:#8c312e;stroke-width:0.75px;"/><path d="M89.616,48.988c-1.817,1.447 -4.017,2.3 -6.404,2.3c-5.098,0 -9.381,-3.867 -10.68,-9.144" style="fill:none;fill-rule:nonzero;stroke:#8c312e;stroke-width:0.75px;"/><path d="M92.59,51.382c-2.558,2.078 -5.693,3.298 -9.072,3.298c-5.571,0 -10.271,-3.431 -12.611,-8.928" style="fill:none;fill-rule:nonzero;stroke:#8c312e;stroke-width:0.75px;"/><path d="M93.811,54.758c-2.813,2.3 -6.249,3.659 -9.956,3.659c-6.11,0 -11.474,-3.682 -14.525,-9.219" style="fill:none;fill-rule:nonzero;stroke:#8c312e;stroke-width:0.75px;"/><path d="M69.024,50.254c0.531,5.649 7.037,10.109 14.95,10.109c4.041,0 7.713,-1.163 10.417,-3.042c0,0 4.788,-0.144 9.152,3.223c4.581,3.548 8.305,11.1 7.769,18.165c-0.532,6.897 -4.17,11.728 -7.436,14.422c-2.837,2.325 -6.26,4.062 -6.26,4.062" style="fill:none;fill-rule:nonzero;stroke:#8c312e;stroke-width:0.75px;"/><path d="M68.749,53.64c0,0 3.12,7.793 9.981,10.71c6.863,2.923 13.907,3.546 17.463,3.009c3.569,-0.525 3.216,-1.057 3.216,-1.057" style="fill:none;fill-rule:nonzero;stroke:#8c312e;stroke-width:0.75px;"/><path d="M84.841,60.366c0,0 11.424,2.48 15.284,6.471c3.862,3.983 6.293,8.499 5.212,13.634c-1.077,5.138 -5.026,9.041 -6.744,10.447" style="fill:none;fill-rule:nonzero;stroke:#8c312e;stroke-width:0.75px;"/><path d="M77.277,100.816c-1.726,-0.999 -7.325,-4.775 -8.537,-11.778c-1.446,-8.31 6.784,-16.178 11.512,-16.359c4.739,-0.174 -1.435,4.022 -4.52,7.955c-3.083,3.931 -2.259,8.404 -1.544,10.273c0.667,1.752 2.658,4.794 4.755,6.017" style="fill:none;fill-rule:nonzero;stroke:#8c312e;stroke-width:0.75px;"/><path d="M97.159,100.402c0,0 2.878,1.675 7.102,0.706c4.228,-0.98 6.118,-3.188 6.921,-3.987" style="fill:none;fill-rule:nonzero;stroke:#8c312e;stroke-width:0.75px;"/><path d="M89.745,13.609c0,0 -3.524,-2.982 -12.062,-2.982c-5.156,0 6.347,2.47 9.83,11.449" style="fill:none;fill-rule:nonzero;stroke:#8c312e;stroke-width:0.75px;"/><path d="M92.569,12.455c0,0 0.446,-5.965 5.776,-5.135c5.332,0.825 -3.593,1.294 -0.986,9.087c2.598,7.795 1.515,4.637 1.515,4.637" style="fill:none;fill-rule:nonzero;stroke:#8c312e;stroke-width:0.75px;"/><path d="M97.701,33.174c0,0 -0.12,-2.125 -2.525,-1.53c-2.232,0.549 -4.039,2.536 -5.063,2.805" style="fill:none;fill-rule:nonzero;stroke:#8c312e;stroke-width:0.75px;"/><path d="M87.891,33.893c0.37,-0.409 0.788,-0.96 1.253,-1.675c2.14,-3.347 4.667,-3.908 6.615,-4.465c1.942,-0.553 5.345,-0.465 6.125,-0.276" style="fill:none;fill-rule:nonzero;stroke:#8c312e;stroke-width:0.75px;"/><path d="M99.314,24.187c0,0 -9.031,0.754 -11.842,4.325c-1.563,1.98 -2.256,3.143 -2.542,3.896" style="fill:none;fill-rule:nonzero;stroke:#8c312e;stroke-width:0.75px;"/><path d="M78.812,32.891c0,0 3.372,-2.005 5.287,-0.821c1.916,1.187 2.095,2.373 3.285,2.194c1.186,-0.183 2.375,-0.553 2.74,0.547c0.367,1.091 -0.638,3.278 -2.555,3.375c-1.922,0.091 -3.013,-0.553 -3.834,-2.008c-0.82,-1.46 -2.555,-3.012 -3.829,-2.741c-1.283,0.274 -1.647,0.459 -1.647,0.459" style="fill:none;fill-rule:nonzero;stroke:#8c312e;stroke-width:0.75px;"/><path d="M97.063,27.512c0,0 1.297,0.274 1.383,1.734l0.096,1.459" style="fill:none;fill-rule:nonzero;stroke:#8c312e;stroke-width:0.75px;"/><path d="M90.511,22.125c0,0 -0.208,-6.104 -0.667,-8.93c-0.467,-2.827 0.824,-3.647 2.401,-0.997c1.573,2.642 3.797,7.748 4.161,9.75c0.378,2.009 0.465,2.375 0.465,2.375" style="fill:none;fill-rule:nonzero;stroke:#8c312e;stroke-width:0.75px;"/><path d="M89.468,12.646c0,0 -3.706,-0.267 -2.588,-2.189c1.107,-1.914 3.423,-3.098 4.535,-2.917c1.103,0.183 2.15,0.362 2.15,1.724" style="fill:none;fill-rule:nonzero;stroke:#8c312e;stroke-width:0.75px;"/><path d="M86.779,10.567c-0.769,-0.372 -1.508,-0.988 -1.107,-1.935c0.87,-2.026 3.427,-3.099 4.532,-2.913c1.117,0.182 1.948,0.363 1.948,1.732" style="fill:none;fill-rule:nonzero;stroke:#8c312e;stroke-width:0.75px;"/><path d="M98.106,10.331c0,0 1.089,-1.332 3.675,0.403c2.591,1.731 1.939,3.464 1.297,5.109c-0.656,1.64 -1.478,3.19 -1.297,4.1c0.17,0.834 -3.296,0.366 -4.459,-3.618" style="fill:none;fill-rule:nonzero;stroke:#8c312e;stroke-width:0.75px;"/><path d="M92.481,42.924c0,-0.456 -0.341,-0.826 -0.761,-0.826c-0.421,0 -0.762,0.37 -0.762,0.826c0,0.456 0.341,0.826 0.762,0.826c0.42,0 0.761,-0.37 0.761,-0.826Z" style="fill:none;stroke:#8c312e;stroke-width:0.75px;"/><path d="M96.845,57.576c0,0 2.291,0.661 4.446,-0.665c2.168,-1.326 1.346,-1.061 3.062,-0.526c1.701,0.526 2.014,-0.135 2.014,-0.135" style="fill:none;fill-rule:nonzero;stroke:#8c312e;stroke-width:0.75px;"/><path d="M95.287,49.868c0.435,0.495 1.542,1.942 1.606,2.35c0.175,1.332 0.175,1.773 -0.362,2.75c-0.544,0.972 -0.183,1.417 1.708,0.706c1.885,-0.706 3.233,-1.241 3.864,-1.95c0.626,-0.704 1.974,0.96 4.043,0.603c2.071,-0.351 1.946,-2.091 1.946,-2.091" style="fill:none;fill-rule:nonzero;stroke:#8c312e;stroke-width:0.75px;"/><path d="M64.904,34.948c1.291,-0.523 2.52,-0.276 2.77,0.579c0.252,0.885 -0.607,2.069 -1.946,2.65c0,0 -1.471,0.627 -2.915,0.713" style="fill:none;fill-rule:nonzero;stroke:#8c312e;stroke-width:0.75px;"/><path d="M63.875,31.722c1.294,-0.53 2.517,-0.286 2.771,0.579c0.249,0.872 -0.621,2.067 -1.949,2.648" style="fill:none;fill-rule:nonzero;stroke:#8c312e;stroke-width:0.75px;"/><path d="M62.496,28.72c1.392,-0.497 2.725,-0.228 3.013,0.612c0.289,0.863 -0.63,2.002 -2.068,2.547" style="fill:none;fill-rule:nonzero;stroke:#8c312e;stroke-width:0.75px;"/><path d="M61.098,25.614c1.395,-0.522 2.739,-0.259 3.029,0.613c0.289,0.884 -0.65,2.062 -2.086,2.626" style="fill:none;fill-rule:nonzero;stroke:#8c312e;stroke-width:0.75px;"/><path d="M59.455,22.461c1.573,-0.503 3.111,-0.206 3.438,0.668c0.288,0.745 -0.369,1.675 -1.518,2.291" style="fill:none;fill-rule:nonzero;stroke:#8c312e;stroke-width:0.75px;"/><path d="M58.35,18.932c1.432,-0.544 2.803,-0.265 3.087,0.634c0.299,0.921 -0.661,2.155 -2.136,2.751" style="fill:none;fill-rule:nonzero;stroke:#8c312e;stroke-width:0.75px;"/><path d="M57.335,16.348c1.284,-0.483 2.414,-0.591 2.672,0.217c0.259,0.822 -0.594,1.924 -1.919,2.456" style="fill:none;fill-rule:nonzero;stroke:#8c312e;stroke-width:0.75px;"/><path d="M38.659,35.015c-1.389,-0.541 -2.704,-0.305 -2.967,0.549c-0.265,0.879 0.687,2.068 2.115,2.663" style="fill:none;fill-rule:nonzero;stroke:#8c312e;stroke-width:0.75px;"/><path d="M39.73,31.8c-1.388,-0.547 -2.703,-0.31 -2.957,0.549c-0.267,0.872 0.678,2.069 2.11,2.661" style="fill:none;fill-rule:nonzero;stroke:#8c312e;stroke-width:0.75px;"/><path d="M41.175,28.815c-1.499,-0.506 -2.92,-0.26 -3.223,0.579c-0.3,0.853 0.703,2.005 2.234,2.564" style="fill:none;fill-rule:nonzero;stroke:#8c312e;stroke-width:0.75px;"/><path d="M42.634,25.726c-1.501,-0.526 -2.932,-0.275 -3.228,0.579c-0.305,0.884 0.702,2.067 2.252,2.646" style="fill:none;fill-rule:nonzero;stroke:#8c312e;stroke-width:0.75px;"/><path d="M44.359,22.595c-1.694,-0.514 -3.323,-0.237 -3.676,0.637c-0.296,0.741 0.415,1.675 1.66,2.295" style="fill:none;fill-rule:nonzero;stroke:#8c312e;stroke-width:0.75px;"/><path d="M45.506,19.082c-1.537,-0.555 -2.997,-0.298 -3.294,0.605c-0.301,0.917 0.732,2.154 2.312,2.769" style="fill:none;fill-rule:nonzero;stroke:#8c312e;stroke-width:0.75px;"/><path d="M46.672,16.166c-1.385,-0.503 -2.691,-0.273 -2.958,0.539c-0.276,0.815 0.659,1.932 2.077,2.473" style="fill:none;fill-rule:nonzero;stroke:#8c312e;stroke-width:0.75px;"/><path d="M51.761,19.54c0,0 -3.549,-0.579 -1.842,-5.003c1.707,-4.431 2.381,-4.958 2.381,-4.958c0,0 1.711,3.537 2.202,4.958c0.5,1.416 0.534,5.094 -2.741,5.003Z" style="fill:none;fill-rule:nonzero;stroke:#8c312e;stroke-width:0.75px;"/><path d="M45.958,15.893c0,0 -0.848,-1.938 -0.041,-1.554c0.814,0.379 3.462,1.901 3.462,1.901" style="fill:none;fill-rule:nonzero;stroke:#8c312e;stroke-width:0.75px;"/><path d="M54.998,16.439c0,0 2.157,-2.077 2.745,-1.951c0.583,0.139 0.516,1.008 0.127,1.553" style="fill:none;fill-rule:nonzero;stroke:#8c312e;stroke-width:0.75px;"/><path d="M67.496,34.797c0,0 0.84,-1.73 1.843,-0.228c1.005,1.496 0.779,6.061 -5.329,6.937" style="fill:none;fill-rule:nonzero;stroke:#8c312e;stroke-width:0.75px;"/><path d="M65.333,133.156c0,0 -0.586,0.564 -0.191,1.623c0.392,1.058 0.93,2.134 0.979,2.872c0.051,0.98 1.955,0.157 2.153,-0.969" style="fill:none;fill-rule:nonzero;stroke:#8c312e;stroke-width:0.75px;"/><path d="M67.312,132.316c0,0 -0.78,1.397 0,2.613c0.786,1.208 1.696,1.873 1.565,2.84c-0.133,0.973 0.166,0.682 0.166,0.682c0,0 1.201,-0.256 1.98,-1.825" style="fill:none;fill-rule:nonzero;stroke:#8c312e;stroke-width:0.75px;"/><path d="M70.343,131.49c0,0 -1.061,1.897 0,3.593c1.044,1.716 1.572,2.566 1.378,3.116c-0.202,0.542 1.397,0.247 2.127,-1.572" style="fill:none;fill-rule:nonzero;stroke:#8c312e;stroke-width:0.75px;"/><path d="M73.104,131.605c0,0 -0.978,1.727 -0.3,2.913c0.672,1.202 1.492,2.371 1.418,3.337c-0.074,1.189 1.719,0.594 2.382,-1.475" style="fill:none;fill-rule:nonzero;stroke:#8c312e;stroke-width:0.75px;"/><path d="M75.224,130.543c0,0 -0.78,0.982 0.112,2.571c0.91,1.579 2.139,3.336 1.812,4.699c-0.303,1.223 1.061,1.817 2.091,-0.853c0.667,-1.709 0.716,-3.117 0.425,-4.458c-0.376,-1.653 -1.384,-3.55 -1.384,-3.55" style="fill:none;fill-rule:nonzero;stroke:#8c312e;stroke-width:0.75px;"/><path d="M95.733,130.944c0,0 0.842,-2.674 0.136,-5.49c-0.691,-2.818 3.916,-4.344 4.568,-1.287c0.65,3.055 -0.889,5.395 -2.097,6.06c-1.208,0.672 -2.607,0.717 -2.607,0.717Z" style="fill:none;fill-rule:nonzero;stroke:#8c312e;stroke-width:0.75px;"/><path d="M101.101,119.002c4.302,0.551 10.836,5.197 12.231,6.527c1.601,1.516 1.846,2.926 1.846,2.926c0,0 -1.302,1.468 -4.152,2.359c-1.21,0.383 -3.005,-0.34 -4.865,0.239c-2.494,0.772 -3.32,2.218 -4.743,1.815c-2.497,-0.717 -2.671,-1.608 -3.208,-2.151" style="fill:none;fill-rule:nonzero;stroke:#8c312e;stroke-width:0.75px;"/><path d="M100.235,132.514c0.515,-0.991 1.191,-2.004 2.011,-2.682c1.55,-1.29 4.361,-2.168 6.056,-1.641c1.687,0.53 4.118,-1.061 5.276,-2.288" style="fill:none;fill-rule:nonzero;stroke:#8c312e;stroke-width:0.75px;"/><path d="M102.479,132.91c0,0 -0.579,0.551 -0.191,1.607c0.394,1.053 0.921,2.124 0.966,2.853c0.051,0.977 1.942,0.157 2.138,-0.96" style="fill:none;fill-rule:nonzero;stroke:#8c312e;stroke-width:0.75px;"/><path d="M104.444,132.077c0,0 -0.775,1.385 0,2.584c0.775,1.209 1.672,1.868 1.543,2.835c-0.131,0.951 0.172,0.68 0.172,0.68c0,0 1.186,-0.26 1.964,-1.827" style="fill:none;fill-rule:nonzero;stroke:#8c312e;stroke-width:0.75px;"/><path d="M107.437,131.259c0,0 -1.046,1.874 0,3.565c1.044,1.696 1.563,2.546 1.37,3.091c-0.198,0.542 1.388,0.259 2.107,-1.567" style="fill:none;fill-rule:nonzero;stroke:#8c312e;stroke-width:0.75px;"/><path d="M110.177,131.368c0,0 -0.963,1.71 -0.306,2.898c0.672,1.18 1.49,2.349 1.412,3.309c-0.079,1.182 1.701,0.596 2.36,-1.462" style="fill:none;fill-rule:nonzero;stroke:#8c312e;stroke-width:0.75px;"/><path d="M112.416,130.42c0,0 -0.922,0.794 0.03,2.383c0.941,1.602 2.239,3.35 1.882,4.723c-0.314,1.23 1.124,1.817 2.211,-0.865c0.687,-1.711 0.753,-3.122 0.441,-4.467c-0.396,-1.658 -1.453,-3.561 -1.453,-3.561" style="fill:none;fill-rule:nonzero;stroke:#8c312e;stroke-width:0.75px;"/><path d="M26.619,129.014c0.002,0.042 0.002,0.057 0.002,0.057c0,0 -1.502,1.724 -4.784,2.768c-1.403,0.45 -3.466,-0.397 -5.614,0.286c-2.871,0.898 -3.825,2.605 -5.474,2.121c-0.72,-0.209 -1.27,-0.427 -1.701,-0.661" style="fill:none;fill-rule:nonzero;stroke:#8c312e;stroke-width:0.75px;"/><path d="M9.695,133.654c0.559,-1.025 1.291,-2.065 2.182,-2.756c1.695,-1.33 4.756,-2.245 6.6,-1.69c1.842,0.545 4.493,-1.093 5.762,-2.364" style="fill:none;fill-rule:nonzero;stroke:#8c312e;stroke-width:0.75px;"/><path d="M11.576,134.669c0,0 -0.315,0.365 0.454,1.336c0.764,0.971 1.795,1.945 1.748,2.479c-0.044,0.529 1.707,-0.616 1.935,-1.243" style="fill:none;fill-rule:nonzero;stroke:#8c312e;stroke-width:0.75px;"/><path d="M14.407,133.168c0,0 0.091,1.862 0.902,3.098c0.812,1.24 1.529,1.548 1.529,2.491l0,0.921c0,0 2.019,-0.491 2.297,-1.335" style="fill:none;fill-rule:nonzero;stroke:#8c312e;stroke-width:0.75px;"/><path d="M17.69,132.323c0,0 1.261,2.705 1.346,4.036c0.099,1.322 0.501,3.405 0.501,3.405c0,0 2.655,-1.05 2.739,-2.122" style="fill:none;fill-rule:nonzero;stroke:#8c312e;stroke-width:0.75px;"/><path d="M21.427,132.323c0,0 1.162,3.556 0.891,5.27c-0.261,1.735 -0.356,2.264 -0.356,2.264c0,0 2.874,-0.74 3.372,-2.971c0.579,-2.613 0.307,-4.026 -0.318,-6.379" style="fill:none;fill-rule:nonzero;stroke:#8c312e;stroke-width:0.75px;"/><path d="M52.585,38.873c0.136,0.792 -0.4,1.541 -1.199,1.679c-0.803,0.14 -1.572,-0.389 -1.705,-1.175l2.904,-0.504Z" style="fill:none;fill-rule:nonzero;stroke:#8c312e;stroke-width:0.75px;"/><path d="M48.473,40.333c0.648,0.452 0.802,1.348 0.341,1.982c-0.451,0.653 -1.352,0.802 -2.011,0.356l1.67,-2.338Z" style="fill:none;fill-rule:nonzero;stroke:#8c312e;stroke-width:0.75px;"/><path d="M46.178,44.063c0.783,-0.14 1.526,0.379 1.666,1.154c0.146,0.784 -0.383,1.524 -1.171,1.649l-0.495,-2.803Z" style="fill:none;fill-rule:nonzero;stroke:#8c312e;stroke-width:0.75px;"/><path d="M47.177,48.101c0.62,-0.504 1.531,-0.409 2.032,0.194c0.512,0.613 0.417,1.511 -0.203,2.008l-1.829,-2.202Z" style="fill:none;fill-rule:nonzero;stroke:#8c312e;stroke-width:0.75px;"/><path d="M50.41,50.713c0.2,-0.768 0.987,-1.216 1.765,-1.014c0.768,0.209 1.232,0.982 1.026,1.746l-2.791,-0.732Z" style="fill:none;fill-rule:nonzero;stroke:#8c312e;stroke-width:0.75px;"/><path d="M54.707,51.028c-0.441,-0.656 -0.248,-1.536 0.42,-1.968c0.673,-0.435 1.563,-0.248 1.993,0.411l-2.413,1.557Z" style="fill:none;fill-rule:nonzero;stroke:#8c312e;stroke-width:0.75px;"/><path d="M58.083,48.244c-0.766,-0.217 -1.212,-1.007 -0.982,-1.762c0.227,-0.763 1.027,-1.192 1.791,-0.975l-0.809,2.737Z" style="fill:none;fill-rule:nonzero;stroke:#8c312e;stroke-width:0.75px;"/><path d="M58.912,43.995c-0.726,0.314 -1.58,-0.009 -1.901,-0.732c-0.327,-0.721 0.007,-1.556 0.728,-1.873l1.173,2.605Z" style="fill:none;fill-rule:nonzero;stroke:#8c312e;stroke-width:0.75px;"/><path d="M56.718,40.216c-0.336,0.713 -1.192,1.019 -1.915,0.681c-0.733,-0.334 -1.034,-1.184 -0.698,-1.892l2.613,1.211Z" style="fill:none;fill-rule:nonzero;stroke:#8c312e;stroke-width:0.75px;"/><path d="M54.073,44.868c0,-0.745 -0.613,-1.351 -1.368,-1.351c-0.755,0 -1.368,0.606 -1.368,1.351c0,0.746 0.613,1.351 1.368,1.351c0.755,0 1.368,-0.605 1.368,-1.351Z" style="fill:none;stroke:#8c312e;stroke-width:0.75px;"/><path d="M57.646,48.41c0,0 0,0.523 -0.551,0.529l0.551,-0.529Z" style="fill:none;fill-rule:nonzero;stroke:#8c312e;stroke-width:0.75px;"/><path d="M56.699,40.749c0,0 0.525,-0.077 0.622,0.455l-0.622,-0.455Z" style="fill:none;fill-rule:nonzero;stroke:#8c312e;stroke-width:0.75px;"/><path d="M58.505,44.395c0,0 0.416,0.34 0.069,0.753l-0.069,-0.753Z" style="fill:none;fill-rule:nonzero;stroke:#8c312e;stroke-width:0.75px;"/><path d="M50.145,50.526c0,0 -0.534,0.102 -0.644,-0.43l0.644,0.43Z" style="fill:none;fill-rule:nonzero;stroke:#8c312e;stroke-width:0.75px;"/><path d="M47.164,47.792c0,0 -0.493,-0.219 -0.261,-0.715l0.261,0.715Z" style="fill:none;fill-rule:nonzero;stroke:#8c312e;stroke-width:0.75px;"/><path d="M46.665,43.774c0,0 -0.271,-0.452 0.195,-0.739l-0.195,0.739Z" style="fill:none;fill-rule:nonzero;stroke:#8c312e;stroke-width:0.75px;"/><path d="M48.882,40.262c0,0 0.121,-0.513 0.654,-0.399l-0.654,0.399Z" style="fill:none;fill-rule:nonzero;stroke:#8c312e;stroke-width:0.75px;"/><path d="M7.063,118.434c-0.011,-0.034 -0.028,-0.071 -0.045,-0.122c-0.652,-1.945 -1.374,-3.477 -1.494,-7.255c-0.123,-3.781 0.422,-5.554 0.473,-5.97" style="fill:none;fill-rule:nonzero;stroke:#8c312e;stroke-width:0.75px;"/><path d="M10.618,134.199c-0.84,-0.295 -4.077,-1.238 -4.796,-4.073c-0.715,-2.841 -0.302,-5.135 1.141,-6.963c0.361,-0.458 0.757,-0.852 1.184,-1.194c0.152,-0.13 0.305,-0.241 0.467,-0.357c1.171,-0.801 2.499,-1.269 3.802,-1.581c1.979,-0.469 5.965,0.407 5.965,0.407c2.317,0.22 3.311,-0.187 3.175,-1.302c-0.105,-0.995 -2.093,-1.518 -2.093,-1.518c0,0 -2.018,-0.745 -5.654,-0.702c-3.505,0.043 -6.377,1.608 -6.577,1.718c-0.009,0.009 -0.015,0.009 -0.015,0.009c0,0 -1.507,0.493 -1.464,1.795c0.032,1.3 1.21,1.886 2.529,1.361" style="fill:none;fill-rule:nonzero;stroke:#8c312e;stroke-width:0.75px;"/><path d="M98.51,44.129c0,0 2.322,2.447 4.621,3.255c2.233,0.783 6.278,0.389 6.952,-0.196" style="fill:none;fill-rule:nonzero;stroke:#8c312e;stroke-width:0.75px;"/><path d="M93.091,48.559c0,0 2.726,2.071 5.058,1.018c1.872,-0.844 2.85,-2.851 2.964,-3.113" style="fill:none;fill-rule:nonzero;stroke:#8c312e;stroke-width:0.75px;"/><path d="M93.005,48.426c0,0 3.146,-1.102 3.923,-2.245c0.785,-1.137 0.529,-1.511 0.561,-1.798" style="fill:none;fill-rule:nonzero;stroke:#8c312e;stroke-width:0.75px;"/><path d="M107.92,52.403l-1.083,1.466l-1.105,0.315l-1.957,-0.429l-1.831,-0.516l-1.514,1.093c0,0 -1.278,-1.987 -3.089,-1.752c-0.861,0.107 0.116,-0.637 0.116,-0.637l-1.014,-1.173l1.014,-0.746l2.074,-1.037l-0.117,2.699l1.516,-0.138l2.008,-1.071l0.64,1.011l1.196,0.347l1.458,-1.269l0.344,1.355l1.169,0.086l0.175,0.396Z" style="fill:none;fill-rule:nonzero;stroke:#8c312e;stroke-width:0.75px;"/><path d="M78.931,111.287c2.343,-0.172 0.737,-3.328 -1.86,-3.177c-1.222,0.08 -4.815,0.887 -6.023,4.631c-1.21,3.758 2.254,3.569 3.337,2.374c0,0 2.024,-3.634 4.546,-3.828Z" style="fill:none;fill-rule:nonzero;stroke:#8c312e;stroke-width:0.75px;"/><path d="M14.061,149.975c-0.095,0.138 -0.237,0.231 -0.375,0.33l-2.327,0l0,1.586l1.745,0c1.129,0.101 1.837,1.031 1.837,1.475c0,0.682 -0.62,1.336 -1.255,1.391c-0.851,0 -1.75,-0.81 -2.316,-2.442c-0.633,1.537 -1.393,2.387 -2.22,2.387c-0.865,0 -1.395,-0.531 -1.395,-1.166c0,-0.511 0.273,-0.835 0.635,-1.141c0.78,-0.659 1.569,-1.081 1.55,-2.282c0,-1.091 -0.79,-2.149 -1.959,-2.149c-0.954,0 -1.832,0.864 -1.832,1.817c0,0.745 0.4,1.552 1.591,1.783l0.226,-0.471c-0.59,-0.373 -0.713,-0.646 -0.713,-0.841c0,-0.372 0.306,-0.673 0.881,-0.673c0.374,0 0.727,0.34 0.727,0.852c0,1.49 -2.211,1.677 -2.211,3.582c0,1.46 0.791,2.431 2.33,2.431c1.098,0 1.933,-0.721 2.36,-1.567c0.417,0.88 1.263,1.567 2.516,1.567c1.031,0 2.033,-1.332 2.033,-2.431c0,-0.919 -0.305,-1.631 -0.862,-2.15l0.862,0l0,-1.574l-1.028,0c0.375,-0.471 0.689,-1.099 0.689,-1.642c0,-0.852 -0.54,-2.142 -1.847,-2.142c-0.902,0 -1.505,0.953 -1.505,1.937c0,0.782 0.526,1.649 1.333,1.649c0.189,0 0.364,-0.051 0.53,-0.116Zm30.276,3.629c0.015,0.397 0.431,0.9 0.962,0.9c0.745,0 1.154,-0.445 1.154,-0.955c0,-0.881 -0.442,-1.282 -1.154,-1.282c-2.596,0 -2.374,4.177 0.519,4.177c2.054,0 3.173,-1.483 3.173,-3.709c0,-3.283 -2.075,-4.362 -3.868,-4.362l-3.725,0l-1.834,0l-1.119,0l0,1.561l1.119,0l0,0.054l0.683,0c0.816,0.23 1.792,1.223 1.78,2.082c-0.071,1.649 -2.204,2.796 -3.793,2.796c-1.83,0 -3.909,-0.919 -4.067,-2.639c0,-0.833 0.517,-1.63 1.085,-2.136c-0.051,0.214 -0.083,0.435 -0.083,0.663c0,0.659 0.497,1.628 1.388,1.628c0.867,0 1.657,-0.839 1.657,-2.093c0,-1.085 -0.652,-2.113 -1.819,-2.113c-1.797,0 -3.007,1.999 -2.99,4.068c0.013,2.536 2.398,4.2 4.829,4.2c3.104,0 4.725,-1.961 4.725,-4.2c0,-0.917 -0.579,-1.724 -1.24,-2.256l3.58,0c1.404,0 2.915,0.997 2.915,2.747c0,1.598 -0.723,2.295 -2.396,2.295c-0.711,0 -1.541,-0.308 -1.567,-1.006c0,-0.146 0.013,-0.305 0.086,-0.42Zm-7.625,-3.997c0.504,0 0.73,0.226 0.73,0.682c0,0.465 -0.319,0.681 -0.885,0.681c-0.304,0 -0.55,-0.267 -0.55,-0.523c0,-0.498 0.388,-0.84 0.705,-0.84Zm-6.217,0.297c1.106,-0.071 2.056,-0.954 2.056,-2.213c0,-0.659 -0.492,-1.408 -1.098,-1.724l-1.1,0c1.052,0.824 1.214,1.168 1.214,1.425c0,0.437 -0.541,0.999 -1.019,0.999l-0.228,0l0,-0.018l-3.795,0l0,1.576l2.833,0c0.09,0 0.217,0.091 0.217,0.192c0,0.164 -0.258,0.422 -0.546,0.422l-2.504,0l0,1.502l1.335,0c-0.556,0.537 -0.825,1.217 -0.825,1.959c0,1.191 1.074,2.42 2.669,2.42c1.604,0 2.855,-1.188 2.855,-2.592c0,-0.637 -0.34,-1.287 -0.852,-1.808l1.201,0l0,-1.496l-2.463,0c0.026,-0.157 0.069,-0.313 0.069,-0.407c0,-0.089 0,-0.166 -0.019,-0.237Zm-0.791,2.14c0.95,0 1.777,0.708 1.749,1.335c-0.048,1.022 -1.167,1.522 -1.749,1.522c-0.712,0 -1.573,-0.751 -1.573,-1.352c0,-0.679 0.558,-1.484 1.573,-1.505Zm-7.879,8.258c2.325,0 4.31,-1.053 4.358,-3.558c0.03,-1.1 -0.356,-1.783 -0.827,-2.022c-0.103,-0.069 -0.207,-0.069 -0.314,-0.069c-0.261,0 -0.603,0.172 -0.603,0.48c0,0.123 0.047,0.304 0.293,0.433c0.437,0.248 0.714,0.646 0.714,1.178c0,1.375 -2.299,2.329 -3.972,2.329c-1.345,0 -2.944,-0.469 -3.287,-1.949l-0.762,0c0.431,2.304 2.482,3.178 4.4,3.178Zm0.896,-10.521c0.835,-0.277 1.462,-1.061 1.462,-2.09c0,-0.659 -0.485,-1.408 -1.085,-1.724l-1.108,0c1.049,0.824 1.211,1.168 1.211,1.425c0,0.437 -0.538,0.999 -1.018,0.999l-0.155,0l0,-0.018l-5.522,0l0,1.576l4.714,0c0.494,0 0.844,0.286 0.901,0.442c0.028,0.09 0.062,0.172 0.062,0.26c-0.375,-0.103 -0.809,-0.17 -1.294,-0.17c-0.893,0 -2.155,0.377 -2.155,1.589c0,0.925 0.919,1.285 1.809,1.285c1.003,0 2.025,-0.551 2.486,-1.339c0.237,0.251 0.433,0.549 0.433,0.872c0,1.113 -1.553,1.834 -2.919,1.834c-1.37,0 -3.096,-0.42 -3.096,-2.455l-0.526,0c-0.288,0.507 -0.376,0.844 -0.376,1.202c0,1.643 1.899,2.975 3.998,2.975c1.81,0 4.022,-1.14 4.022,-3.065c0,-0.711 -0.363,-1.577 -1.299,-2.222c-0.003,-0.515 -0.203,-0.995 -0.545,-1.376Zm-1.501,1.447c0.175,0 0.522,0.064 0.829,0.148c-0.241,0.426 -0.792,0.732 -1.506,0.732c-0.442,0 -0.709,-0.202 -0.709,-0.353c0,-0.247 0.25,-0.527 1.386,-0.527Zm-7.517,-3.485c0.331,0 0.53,0.221 0.53,0.527c0,0.411 -0.199,0.581 -0.53,0.581c-0.364,0 -0.728,-0.226 -0.728,-0.409c0,-0.37 0.211,-0.699 0.728,-0.699Z" class="title" style="fill:#8c312e;fill-rule:nonzero;stroke:#8c312e;stroke-width:0.22px;"/><path d="M99.645,152.921l0,-0.516c-0.298,-0.186 -0.571,-0.336 -0.836,-0.428c-0.263,-0.099 -0.512,-0.149 -0.736,-0.149c-0.426,0 -0.788,0.15 -1.091,0.45c-0.285,0.303 -0.424,0.63 -0.424,1.008c0,0.469 0.228,0.716 0.678,0.716c0.57,0 1.366,-0.357 2.409,-1.081Zm19.409,-3.407l-1.765,0l0,7.166l-1.432,-0.897l0,-6.269l-0.254,0l-1.42,0l-0.349,0l0,7.166l-1.43,-0.897l0,-3.634c-0.06,-0.005 -0.123,-0.013 -0.175,-0.013c-0.262,0 -0.534,0.105 -0.807,0.309c-0.202,0.147 -0.581,0.608 -1.13,1.385l-1.274,-0.361l0.2,-0.704l0.06,-0.18l0.006,-0.18c0,-0.138 -0.062,-0.261 -0.18,-0.371c-0.125,-0.107 -0.268,-0.163 -0.426,-0.163c-0.377,0 -0.704,0.142 -0.976,0.407c-0.344,0.307 -0.514,0.708 -0.514,1.191c0,0.32 0.185,0.755 0.555,1.323c0.13,0.168 0.358,0.418 0.687,0.771c0.248,0.231 0.573,0.495 0.953,0.778l-0.553,0.482c-0.962,-0.75 -1.687,-1.494 -2.173,-2.22c-0.481,-0.734 -0.722,-1.46 -0.722,-2.198c0,-0.586 0.188,-1.057 0.575,-1.415c0.346,-0.29 0.785,-0.443 1.317,-0.443c0.426,0 0.826,0.099 1.2,0.299c0.369,0.188 0.669,0.478 0.88,0.853c0.09,-0.244 0.254,-0.441 0.491,-0.579c0.243,-0.149 0.521,-0.224 0.852,-0.224l0.388,0c0.09,0 0.208,0.034 0.346,0.094c0.14,0.044 0.284,0.093 0.42,0.166l0,-1.642l-0.469,0l-1.202,0l-4.602,0l-0.084,0l-1.051,0l-3.422,0l-0.414,0l0,2.084l0.297,-0.16l0.323,-0.12c0.345,-0.089 0.603,-0.143 0.767,-0.143c0.622,0 1.127,0.293 1.53,0.881c0.366,0.547 0.549,1.214 0.549,1.996c0,0.916 -0.263,1.694 -0.79,2.329l-1.46,-0.902l0.412,-0.818l0.295,-0.722c0.161,-0.449 0.241,-0.796 0.241,-1.031c0,-0.359 -0.147,-0.531 -0.45,-0.531c-0.164,0 -0.418,0.079 -0.799,0.249c-0.232,0.11 -0.545,0.295 -0.915,0.556l0,3.498l-1.431,-0.897l0,-1.135c-0.139,0.135 -0.357,0.299 -0.674,0.489c-0.261,0.114 -0.543,0.172 -0.859,0.172c-0.717,0 -1.382,-0.297 -1.989,-0.9c-0.61,-0.609 -0.924,-1.201 -0.924,-1.817c0,-0.523 0.246,-1.02 0.732,-1.489c0.485,-0.47 1.044,-0.713 1.674,-0.713c0.399,0 0.771,0.114 1.136,0.314c0.286,0.157 0.591,0.456 0.904,0.881l0,-2.071l-4.082,0l-1.41,0l-0.358,0l0,7.166l-1.429,-0.897l0,-1.639l-2.627,1.841l-0.928,-1.094l3.271,-2.126l0,-0.173c-0.118,-0.179 -0.285,-0.314 -0.51,-0.407c-0.237,-0.097 -0.499,-0.144 -0.795,-0.144c-0.593,0 -1.126,0.187 -1.597,0.551l-0.721,-1.444l0.308,-0.17l0.413,-0.151c0.262,-0.082 0.515,-0.123 0.777,-0.123c0.57,0 1.128,0.157 1.688,0.471c0.252,0.149 0.491,0.334 0.721,0.561l0,-2.222l-0.537,0l-1.134,0l-1.872,0l-1.236,0l-0.53,0l0,7.166l-1.436,-0.897l0,-1.277c-0.221,0.237 -0.48,0.441 -0.775,0.617l-0.635,0.229c-0.219,0.045 -0.434,0.076 -0.647,0.076c-0.665,0 -1.268,-0.218 -1.818,-0.672c-0.544,-0.44 -0.824,-1.001 -0.824,-1.669l0,-0.307c0.033,-0.102 0.056,-0.207 0.075,-0.315c0.013,-0.108 0.076,-0.252 0.162,-0.448l-0.909,0l-0.71,-1.242l4.88,0l0.56,1.242l-0.915,0c-0.489,0 -0.912,0.172 -1.276,0.523c-0.364,0.34 -0.547,0.767 -0.547,1.29c0,0.366 0.261,0.551 0.77,0.551c0.431,0 0.879,-0.149 1.341,-0.442c0.442,-0.273 0.87,-0.658 1.268,-1.181l0,-3.244l-0.432,0l-1.232,0l-3.75,0l-1.078,0l-0.554,0l0,7.166l-1.431,-0.897l0,-6.269l-1.53,0l-0.72,-1.251l2.577,0c-0.25,-0.532 -0.387,-1.066 -0.387,-1.582c0,-0.614 0.236,-1.105 0.704,-1.482c0.458,-0.357 1.065,-0.551 1.819,-0.551c0.596,0 1.242,0.123 1.941,0.373c0.19,0.071 0.357,0.137 0.507,0.215c0.155,0.076 0.316,0.172 0.486,0.278c0.329,0.165 0.663,0.402 1.023,0.711l0,0.707c-0.569,-0.335 -1.135,-0.6 -1.7,-0.788c-0.56,-0.202 -1.064,-0.303 -1.5,-0.303c-0.624,0 -1.139,0.207 -1.522,0.607c-0.396,0.398 -0.587,1.005 -0.587,1.815l40.009,0l0.706,1.251Z" class="title" style="fill:#8c312e;fill-rule:nonzero;stroke:#8c312e;stroke-width:0.22px;"/><path d="M0,143.161l126.52,0" style="fill:none;fill-rule:nonzero;stroke:#8c312e;stroke-width:0.75px;"/><path d="M0,162.484l126.52,0" style="fill:none;fill-rule:nonzero;stroke:#8c312e;stroke-width:0.75px;"/><path d="M120.785,92.842c0,-3.103 -2.557,-5.622 -5.708,-5.622c-3.15,0 -5.708,2.519 -5.708,5.622c0,3.103 2.558,5.622 5.708,5.622c3.151,0 5.708,-2.519 5.708,-5.622Z" style="fill:none;stroke:#8c312e;stroke-width:0.75px;"/><path d="M119.298,93.887c0,-0.605 -0.497,-1.096 -1.109,-1.096c-0.611,0 -1.108,0.491 -1.108,1.096c0,0.605 0.497,1.096 1.108,1.096c0.612,0 1.109,-0.491 1.109,-1.096Z" style="fill:none;stroke:#8c312e;stroke-width:0.75px;"/><path d="M117.274,95.806c0,-0.603 -0.5,-1.093 -1.115,-1.093c-0.616,0 -1.116,0.49 -1.116,1.093c0,0.604 0.5,1.094 1.116,1.094c0.615,0 1.115,-0.49 1.115,-1.094Z" style="fill:none;stroke:#8c312e;stroke-width:0.75px;"/><path d="M113.767,91.036c0,-0.604 -0.498,-1.094 -1.111,-1.094c-0.613,0 -1.111,0.49 -1.111,1.094c0,0.605 0.498,1.095 1.111,1.095c0.613,0 1.111,-0.49 1.111,-1.095Z" style="fill:none;stroke:#8c312e;stroke-width:0.75px;"/><path d="M113.055,93.341c0,-0.604 -0.5,-1.094 -1.114,-1.094c-0.615,0 -1.114,0.49 -1.114,1.094c0,0.605 0.499,1.095 1.114,1.095c0.614,0 1.114,-0.49 1.114,-1.095Z" style="fill:none;stroke:#8c312e;stroke-width:0.75px;"/><path d="M114.66,95.571c0,-0.605 -0.499,-1.095 -1.115,-1.095c-0.615,0 -1.115,0.49 -1.115,1.095c0,0.604 0.5,1.094 1.115,1.094c0.616,0 1.115,-0.49 1.115,-1.094Z" style="fill:none;stroke:#8c312e;stroke-width:0.75px;"/><path d="M116.372,89.98c0,-0.604 -0.499,-1.094 -1.112,-1.094c-0.614,0 -1.112,0.49 -1.112,1.094c0,0.605 0.498,1.095 1.112,1.095c0.613,0 1.112,-0.49 1.112,-1.095Z" style="fill:none;stroke:#8c312e;stroke-width:0.75px;"/><path d="M116.688,91.303c0,0.604 0.498,1.095 1.111,1.095c0.613,0 1.111,-0.491 1.111,-1.095c0,-0.604 -0.498,-1.095 -1.111,-1.095c-0.613,0 -1.111,0.491 -1.111,1.095Z" style="fill:none;stroke:#8c312e;stroke-width:0.75px;"/><path d="M108.395,34.682c0,-1.954 -1.611,-3.541 -3.595,-3.541c-1.984,0 -3.595,1.587 -3.595,3.541c0,1.955 1.611,3.542 3.595,3.542c1.984,0 3.595,-1.587 3.595,-3.542Z" style="fill:none;stroke:#8c312e;stroke-width:0.75px;"/><path d="M106.279,34.551c0,-0.761 -0.623,-1.379 -1.391,-1.379c-0.769,0 -1.392,0.618 -1.392,1.379c0,0.761 0.623,1.379 1.392,1.379c0.768,0 1.391,-0.618 1.391,-1.379Z" style="fill:none;stroke:#8c312e;stroke-width:0.75px;"/><path d="M108.639,21.929c0,-0.831 -0.686,-1.506 -1.53,-1.506c-0.844,0 -1.53,0.675 -1.53,1.506c0,0.832 0.686,1.507 1.53,1.507c0.844,0 1.53,-0.675 1.53,-1.507Z" style="fill:none;stroke:#8c312e;stroke-width:0.75px;"/><path d="M108.685,25.677c0,-0.831 -0.686,-1.506 -1.532,-1.506c-0.845,0 -1.532,0.675 -1.532,1.506c0,0.831 0.687,1.506 1.532,1.506c0.846,0 1.532,-0.675 1.532,-1.506Z" style="fill:none;stroke:#8c312e;stroke-width:0.75px;"/><path d="M102.097,21.882c0,-0.831 -0.686,-1.506 -1.531,-1.506c-0.846,0 -1.532,0.675 -1.532,1.506c0,0.831 0.686,1.506 1.532,1.506c0.845,0 1.531,-0.675 1.531,-1.506Z" style="fill:none;stroke:#8c312e;stroke-width:0.75px;"/><path d="M101.991,25.465c0,-0.832 -0.685,-1.507 -1.529,-1.507c-0.845,0 -1.53,0.675 -1.53,1.507c0,0.831 0.685,1.506 1.53,1.506c0.844,0 1.529,-0.675 1.529,-1.506Z" style="fill:none;stroke:#8c312e;stroke-width:0.75px;"/><path d="M105.365,27.302c0,-0.833 -0.686,-1.509 -1.531,-1.509c-0.845,0 -1.531,0.676 -1.531,1.509c0,0.833 0.686,1.509 1.531,1.509c0.845,0 1.531,-0.676 1.531,-1.509Z" style="fill:none;stroke:#8c312e;stroke-width:0.75px;"/><path d="M105.879,62.224c0,0 -0.54,-4.069 0.808,-6.725c1.351,-2.663 2.157,-2.836 3.602,-1.682c1.433,1.15 4.937,4.164 4.223,6.818c-0.719,2.657 -1.804,4.25 1.259,8.504c3.053,4.243 5.027,8.499 4.67,13.543c-0.364,5.052 -1.253,6.116 -1.253,6.116" style="fill:none;fill-rule:nonzero;stroke:#8c312e;stroke-width:0.75px;"/><path d="M106.689,27.158c0,0 -1.453,3.109 -0.134,4.299" style="fill:none;fill-rule:nonzero;stroke:#8c312e;stroke-width:0.75px;"/><path d="M107.65,36.837c0,0 3.946,2.839 6.233,2.717c2.275,-0.114 0.357,2.129 -1.561,3.543c-1.916,1.414 -4.917,1.372 -5.632,0.316" style="fill:none;fill-rule:nonzero;stroke:#8c312e;stroke-width:0.75px;"/><path d="M100.282,32.799c0,0 -0.43,-0.818 0.646,-2.002c1.061,-1.19 3.105,-2.004 3.105,-2.004" style="fill:none;fill-rule:nonzero;stroke:#8c312e;stroke-width:0.75px;"/><path d="M108.754,52.927c0,0 -0.893,-1.948 0.538,-2.215c1.436,-0.264 3.777,0.091 5.307,2.127c1.425,1.897 1.671,2.547 2.157,3.985c0.362,1.065 0.362,2.577 -0.362,3.458c-0.721,0.882 -1.39,0.665 -1.661,-0.136" style="fill:none;fill-rule:nonzero;stroke:#8c312e;stroke-width:0.75px;"/><path d="M116.394,55.704c0,0 0.012,-7.786 3.492,-10.296" style="fill:none;fill-rule:nonzero;stroke:#8c312e;stroke-width:0.75px;"/><path d="M114.583,66.842c0,0 1.649,0.957 4.691,-2.524c2.493,-2.852 3.257,-5.694 3.464,-6.908" style="fill:none;fill-rule:nonzero;stroke:#8c312e;stroke-width:0.75px;"/><path d="M110.105,44.252c0,0 0.902,0.97 0.088,3.093c-0.807,2.131 -1.259,2.486 -1.071,2.927" style="fill:none;fill-rule:nonzero;stroke:#8c312e;stroke-width:0.75px;"/><path d="M99.766,43.627c0,0 2.045,2.077 4.404,2.658c2.515,0.616 5.216,0.045 6.022,-0.572" style="fill:none;fill-rule:nonzero;stroke:#8c312e;stroke-width:0.75px;"/><path d="M110.044,50.214c2.155,-3.577 11.448,-5.48 14.841,-5.366c2.019,0.065 3.109,0.762 3.109,0.762c0,0 0.152,1.77 -1.056,4.132c-0.518,1.012 -2.126,1.655 -2.917,3.185c-0.921,1.77 -0.725,3.112 -1.39,3.842" style="fill:none;fill-rule:nonzero;stroke:#8c312e;stroke-width:0.75px;"/><path d="M105.535,23.665c0,-0.94 -0.776,-1.703 -1.733,-1.703c-0.956,0 -1.733,0.763 -1.733,1.703c0,0.941 0.777,1.704 1.733,1.704c0.957,0 1.733,-0.763 1.733,-1.704Z" style="fill:none;stroke:#8c312e;stroke-width:0.75px;"/><path d="M100.784,47.086c0,0 -0.299,2.579 -0.915,3.423c-0.611,0.845 1.419,1.155 2.713,-0.194c1.305,-1.348 1.182,-2.213 1.182,-2.213" style="fill:none;fill-rule:nonzero;stroke:#8c312e;stroke-width:0.75px;"/><path d="M103.897,48.426c0,0 0.205,2.071 -0.157,2.84c-0.353,0.755 1.358,0.643 2.194,-0.638c0.828,-1.279 0.887,-2.234 0.887,-2.234" style="fill:none;fill-rule:nonzero;stroke:#8c312e;stroke-width:0.75px;"/><path d="M106.809,48.708c0,0 0.011,1.704 -0.027,2.421c-0.042,1.272 1.134,0.833 1.693,-0.235c0.554,-1.068 1.232,-2.681 1.232,-2.681" style="fill:none;fill-rule:nonzero;stroke:#8c312e;stroke-width:0.75px;"/><path d="M122.478,56.839c-1.271,-0.495 -2.236,-1.034 -2.137,-2.003c0.178,-1.842 1.449,-4.221 2.908,-4.985c1.456,-0.753 2.022,-3.348 1.972,-4.894" style="fill:none;fill-rule:nonzero;stroke:#8c312e;stroke-width:0.75px;"/></g></g></svg>